<?xml version="1.0" encoding="iso-8859-1"?><!DOCTYPE svg PUBLIC "-//W3C//DTD SVG 1.1//EN" "http://www.w3.org/Graphics/SVG/1.1/DTD/svg11.dtd"><svg xmlns="http://www.w3.org/2000/svg" xmlns:xlink="http://www.w3.org/1999/xlink"><symbol viewBox="0 0 54 54" id="arrow" xmlns="http://www.w3.org/2000/svg"><path d="M0 0v54h54V0H0zm52 52H2V2h50v50z"/><path d="M23.707 36.293L15.414 28H40a1 1 0 100-2H15.414l8.293-8.293-1.414-1.414L11.586 27l10.707 10.707 1.414-1.414z"/></symbol><symbol viewBox="0 0 48.605 48.605" id="facebook" xmlns="http://www.w3.org/2000/svg"><path d="M34.094 8.688h4.756V.005h-8.643c-.721-.03-9.51-.198-11.788 8.489-.033.091-.761 2.157-.761 6.983l-7.903.024v9.107l7.913-.023v24.021h12.087v-24h8v-9.131h-8v-2.873c0-1.786.753-3.914 4.339-3.914zm1.661 8.786v5.131h-8v24h-8.087V22.579l-7.913.023v-5.107l7.934-.023-.021-1.017c-.104-5.112.625-7.262.658-7.365 1.966-7.482 9.473-7.106 9.795-7.086l6.729.002v4.683h-2.756c-4.673 0-6.338 3.054-6.338 5.912v4.873h7.999z"/></symbol><symbol viewBox="0 0 512 512" id="google-plus" xmlns="http://www.w3.org/2000/svg"><path d="M425.406 280.243c-1.953-14.672-15.077-26.167-29.878-26.167h-157.01c-15.271 0-27.696 12.425-27.696 27.698v37.134c0 15.272 12.425 27.698 27.696 27.698h77.526c.862 0 1.518.12 1.978.26-8.88 19.34-22.963 35.854-40.792 47.817-19.065 12.789-41.234 19.55-64.112 19.55-47.158 0-90.228-29.518-107.384-73.519a10.359 10.359 0 00-.466-1.217c-4.974-13.192-7.496-26.852-7.496-40.611 0-14.147 2.649-28.151 7.874-41.625 17.365-44.783 59.549-73.72 107.468-73.72 23.081 0 45.386 6.867 64.507 19.861l.116.077.595.393c.064.042.128.084.193.124 5.309 3.34 11.333 5.105 17.422 5.105 8.103 0 15.513-3.155 20.851-8.87l30.657-32.706c5.216-5.586 7.68-12.903 6.759-20.075-.881-6.858-4.79-13.06-10.778-17.164a8.974 8.974 0 00-.455-.371c-37.517-28.882-82.425-44.148-129.867-44.148-79.019 0-151.165 43.406-188.286 113.279C8.585 229.624 0 264.147 0 298.886c0 34.913 8.658 69.579 25.038 100.252C62.223 468.754 134.289 512 213.114 512c50.751 0 99.944-18.191 138.52-51.22 47.408-40.602 74.597-99.611 74.597-161.895.001-12.069-.739-18.002-.825-18.642zm-87.367 164.663c-34.789 29.79-79.155 46.196-124.925 46.196-71.096 0-136.099-39.011-169.642-101.81-14.768-27.653-22.574-58.914-22.574-90.407 0-31.332 7.741-62.466 22.384-90.035 33.487-63.029 98.562-102.185 169.832-102.185 42.645 0 83.016 13.674 116.777 39.549 2.745 1.367 4.953 4.198 2.303 7.034l-30.656 32.706c-1.737 1.86-4 2.251-5.591 2.251-2.085 0-4.286-.654-6.21-1.844l-.427-.282c-22.585-15.332-48.933-23.436-76.195-23.436-28.013 0-54.915 8.455-77.798 24.454-22.327 15.61-39.325 37.259-49.153 62.608-6.164 15.89-9.289 32.437-9.289 49.179 0 16.532 3.064 32.913 9.107 48.691 9.766 25.478 26.753 47.246 49.128 62.952 22.928 16.095 49.903 24.602 78.009 24.602 27.039 0 53.233-7.986 75.754-23.094 21.436-14.383 38.289-34.359 48.736-57.769.077-.172.151-.347.217-.523 2.456-6.416 1.753-13.163-1.926-18.51-4.104-5.965-11.527-9.526-19.857-9.526h-77.526c-3.685 0-6.798-3.114-6.798-6.8v-37.134c0-3.686 3.114-6.8 6.798-6.8h157.009c4.236 0 8.604 3.825 9.159 7.991.006.051.648 5.237.648 15.919 0 56.174-24.528 109.397-67.294 146.023zM492.408 49.422h-29.83v-29.83C462.578 8.789 453.789 0 442.986 0h-29.157c-10.803 0-19.592 8.789-19.592 19.592v29.83h-29.83c-10.803 0-19.592 8.79-19.592 19.593v29.157c0 10.803 8.789 19.593 19.592 19.593h29.829v29.829c0 10.803 8.79 19.592 19.593 19.592h29.157c10.803 0 19.593-8.789 19.593-19.592v-29.829h29.83c10.803 0 19.592-8.79 19.592-19.593V69.014c-.001-10.803-8.79-19.592-19.593-19.592zm-1.306 47.444h-38.973c-5.771 0-10.449 4.678-10.449 10.449v38.972h-26.547v-38.972c0-5.771-4.678-10.449-10.449-10.449h-38.972V70.32h38.973c5.771 0 10.449-4.678 10.449-10.449V20.898h26.546v38.973c0 5.771 4.678 10.449 10.449 10.449h38.973v26.546z"/><path d="M260.678 288.435H256c-5.771 0-10.449 4.678-10.449 10.449s4.678 10.449 10.449 10.449h4.678c5.77 0 10.449-4.678 10.449-10.449s-4.678-10.449-10.449-10.449zM363.625 288.435h-69.143c-5.771 0-10.449 4.678-10.449 10.449s4.678 10.449 10.449 10.449h69.143c5.771 0 10.449-4.678 10.449-10.449-.001-5.771-4.679-10.449-10.449-10.449z"/></symbol><symbol viewBox="0 0 512.016 512.016" id="gps" xmlns="http://www.w3.org/2000/svg"><path d="M368.632 461.946H169.208v-15.945h192.823l40.143-40.143h87.948v15.945h-81.346z"/><path d="M342.808 461.946H143.384l-40.144-40.143H21.893v-15.945h87.949l40.143 40.143h192.823zM165.444 496.07h181.135v15.946H165.444zM256.008 365.419l-15.467-20.426c-11.377-14.917-111.006-147.872-111.006-214.135C129.535 51.369 179.15 0 256.008 0s126.473 51.369 126.473 130.858c0 66.175-99.661 199.154-110.918 214.143l-15.555 20.418z"/><circle cx="255.936" cy="131.727" r="40.956"/></symbol><symbol viewBox="0 0 24 24" id="indeed" xmlns="http://www.w3.org/2000/svg"><path d="M14.822 10.308a3.018 3.018 0 111.32-4.038 3.006 3.006 0 01-1.32 4.044zM11.6.572c2.47-.901 5.294-.852 7.408.982a3.587 3.587 0 011.023 1.37c.213.69-.749-.07-.88-.168a9.407 9.407 0 00-2.15-1.095C12.837.386 8.897 2.707 6.463 6.316a19.505 19.505 0 00-2.248 5.126 2.918 2.918 0 01-.213.642c-.107.204-.049-.547-.049-.572a15.821 15.821 0 01.43-2.239C5.511 5.34 8.01 2.065 11.6.565zm.037 20.993v-8.763c.249.025.486.037.736.037a6.167 6.167 0 003.219-.895v9.62c0 .822-.15 1.43-.52 1.826a1.874 1.874 0 01-1.452.61 1.825 1.825 0 01-1.427-.609c-.368-.404-.56-1.013-.56-1.825z"/></symbol><symbol viewBox="0 0 512 512" id="message" xmlns="http://www.w3.org/2000/svg"><path d="M0 72.205v367.59h512V72.205H0zm469.425 39.385L256 289.444 42.576 111.59h426.849zm3.19 288.82H39.385V160.197L256 340.71l216.615-180.513V400.41z"/><path d="M367.59 321.641h65.641v39.385H367.59z"/></symbol><symbol viewBox="-96 0 512 512" id="mobile" xmlns="http://www.w3.org/2000/svg"><path d="M272 0H48C21.5 0 0 21.5 0 48v416c0 26.5 21.5 48 48 48h224c26.5 0 48-21.5 48-48V48c0-26.5-21.5-48-48-48zM160 480c-17.7 0-32-14.3-32-32s14.3-32 32-32 32 14.3 32 32-14.3 32-32 32zm112-108c0 6.6-5.4 12-12 12H60c-6.6 0-12-5.4-12-12V60c0-6.6 5.4-12 12-12h200c6.6 0 12 5.4 12 12v312z"/></symbol><symbol viewBox="0 0 512 512" id="twitter" xmlns="http://www.w3.org/2000/svg"><path d="M507.413 93.394a10.446 10.446 0 00-12.174.327c-3.612 2.735-9.474 5.087-16.138 7.016 18.245-21.301 18.623-35.541 18.408-38.893a10.467 10.467 0 00-5.985-8.791 10.476 10.476 0 00-10.587 1.005c-21.893 15.908-43.689 19.373-56.791 19.76-20.337-19.342-46.704-29.944-74.74-29.944-60.271 0-109.307 49.684-109.307 110.751 0 4.944.327 9.878.969 14.771C138.176 167.645 54.665 69.155 53.803 68.119c-2.184-2.617-5.5-4.041-8.929-3.714a10.46 10.46 0 00-8.148 5.189c-29.005 50.322-11.286 94.725 6.505 121.327-1.837-1.092-3.342-2.097-4.372-2.857a10.459 10.459 0 00-10.852-.995 10.456 10.456 0 00-5.837 9.209c-.786 48.255 21.764 76.49 43.674 92.49a10.432 10.432 0 00-6.266 3.276 10.442 10.442 0 00-2.311 10.122c15.194 49.735 52.041 67.352 76.373 73.587-49.22 37.138-120.557 25.016-121.348 24.867-4.73-.831-9.464 1.663-11.408 6.082a10.445 10.445 0 003.225 12.51c52.464 40.041 115.21 48.913 160.53 48.913 34.272 0 58.573-5.077 60.91-5.582 228.617-54.179 235.864-263.063 235.394-298.66 42.888-39.929 49.633-55.255 50.684-59.067a10.463 10.463 0 00-4.214-11.422zm-64.13 58.358a10.453 10.453 0 00-3.346 8.398c.036.561 3.536 57.179-21.694 120.266-33.709 84.291-100.164 138.725-197.307 161.746-1.041.219-90.905 18.831-169.792-18.689 33.725-1.414 80.429-10.913 113.292-47.806 2.745-3.077 3.398-7.833 1.709-11.593-1.689-3.75-5.439-6.51-9.551-6.51h-.071c-2.76 0-50.337-.357-73.133-46.306 9.219.398 20.24-.145 29.122-4.237 4.092-1.888 6.51-6.1 6.005-10.574-.505-4.475-3.821-8.079-8.23-9.008-2.556-.541-57.649-12.836-66.143-72.693 8.464 3.526 19.015 6.257 29.51 4.685a10.44 10.44 0 008.474-7.413 10.463 10.463 0 00-3.184-10.809c-2.383-2.07-54.327-48.273-30.541-107.973 28.158 29.332 108.46 102.368 205.833 96.786a10.459 10.459 0 007.82-4.25 10.435 10.435 0 001.71-8.728 92.125 92.125 0 01-2.77-22.418c0-49.546 39.658-89.853 88.409-89.853 23.842 0 46.203 9.515 62.97 26.796a10.462 10.462 0 007.322 3.174c9.658.092 25.561-.949 43.531-7.633-5.359 6.275-12.852 13.622-23.332 21.852a10.457 10.457 0 00-3.276 12.026c1.684 4.301 6.056 7.02 10.566 6.607 2.112-.168 12.352-1.071 24.352-3.505-6.876 7.31-16.044 16.433-28.255 27.662z"/></symbol></svg>